<svg width="24" height="24" viewBox="0 0 24 24" fill="none" xmlns="http://www.w3.org/2000/svg">
<path d="M20.6984 9.56L12.004 3L3.3016 9.56C3.12169 9.72602 3.01352 9.95557 3 10.2V20.2176C3.00063 20.4249 3.08327 20.6235 3.22986 20.7701C3.37645 20.9167 3.57509 20.9994 3.7824 21H9V16.8024C9 16.0067 9.31607 15.2437 9.87868 14.6811C10.4413 14.1185 11.2044 13.8024 12 13.8024C12.7956 13.8024 13.5587 14.1185 14.1213 14.6811C14.6839 15.2437 15 16.0067 15 16.8024V21.0024H20.2168C20.4242 21.0018 20.6229 20.9192 20.7696 20.7726C20.9163 20.626 20.9992 20.4274 21 20.22V10.2C20.9862 9.95566 20.878 9.72622 20.6984 9.56Z" stroke="#959595" stroke-width="1.5" stroke-linecap="round" stroke-linejoin="round"/>
</svg>
