<svg width="24" height="24" viewBox="0 0 24 24" fill="none" xmlns="http://www.w3.org/2000/svg">
<path d="M20.6402 8.4L18.7202 3.7128C18.6257 3.50025 18.4716 3.31972 18.2764 3.19317C18.0813 3.06662 17.8535 2.99951 17.621 3H7.18016C6.94743 2.99935 6.71954 3.06639 6.52424 3.19295C6.32893 3.31951 6.17464 3.50012 6.08016 3.7128L4.16016 8.4M12.3999 7.8V3M14.2002 17.3999H17.8002M5.2 7.80005H19.6C20.2627 7.80005 20.8 8.33731 20.8 9.00005V19.8C20.8 20.4628 20.2627 21 19.6 21H5.2C4.53726 21 4 20.4628 4 19.8V9.00005C4 8.33731 4.53726 7.80005 5.2 7.80005Z" stroke="#959595" stroke-width="1.5" stroke-linecap="round" stroke-linejoin="round"/>
</svg>
