<svg width="24" height="24" viewBox="0 0 24 24" fill="none" xmlns="http://www.w3.org/2000/svg">
<path d="M17.1426 17.8789H8.63906C8.33536 17.8789 8.04144 17.7753 7.80941 17.5863C7.57737 17.3972 7.4222 17.1351 7.37138 16.8463L5.11114 4.03178C5.06014 3.74312 4.90489 3.48118 4.67287 3.29234C4.44085 3.10349 4.14704 2.99994 3.84346 3H3.00005" stroke="#959595" stroke-width="1.5" stroke-linecap="round" stroke-linejoin="round"/>
<path d="M6.8974 14.1586H17.2437C17.8171 14.1585 18.374 13.9737 18.8259 13.6333C19.2778 13.293 19.5988 12.8167 19.738 12.2802L20.9808 7.48512C21.0045 7.39368 21.0063 7.29822 20.986 7.20601C20.9657 7.11379 20.9239 7.02725 20.8638 6.95296C20.8036 6.87868 20.7267 6.8186 20.6388 6.77729C20.551 6.73599 20.4545 6.71455 20.3568 6.7146H5.58514" stroke="#959595" stroke-width="1.5" stroke-linecap="round" stroke-linejoin="round"/>
<mask id="path-3-inside-1_72956_1367" fill="white">
<ellipse cx="0.985691" cy="0.950755" rx="0.985691" ry="0.950755" transform="matrix(-1 0 0 1 10.1143 19.2)"/>
</mask>
<ellipse cx="0.985691" cy="0.950755" rx="0.985691" ry="0.950755" transform="matrix(-1 0 0 1 10.1143 19.2)" fill="black"/>
<path d="M9.14288 20.1507C9.14288 20.1405 9.14046 20.129 9.13615 20.1192C9.1322 20.1102 9.12792 20.1053 9.12581 20.1032C9.12162 20.0992 9.12062 20.1015 9.12857 20.1015V22.1015C8.06622 22.1015 7.14288 21.2618 7.14288 20.1507H9.14288ZM9.12857 20.1015C9.13652 20.1015 9.13551 20.0992 9.13132 20.1032C9.12921 20.1053 9.12494 20.1102 9.12098 20.1192C9.11667 20.129 9.11426 20.1405 9.11426 20.1507H11.1143C11.1143 21.2618 10.1909 22.1015 9.12857 22.1015V20.1015ZM9.11426 20.1507C9.11426 20.161 9.11667 20.1724 9.12098 20.1822C9.12494 20.1913 9.12921 20.1961 9.13132 20.1982C9.13551 20.2022 9.13652 20.2 9.12857 20.2V18.2C10.1909 18.2 11.1143 19.0396 11.1143 20.1507H9.11426ZM9.12857 20.2C9.12062 20.2 9.12162 20.2022 9.12581 20.1982C9.12792 20.1961 9.1322 20.1913 9.13615 20.1822C9.14046 20.1724 9.14288 20.161 9.14288 20.1507H7.14288C7.14288 19.0396 8.06622 18.2 9.12857 18.2V20.2Z" fill="#959595" mask="url(#path-3-inside-1_72956_1367)"/>
<mask id="path-5-inside-2_72956_1367" fill="white">
<ellipse cx="0.985691" cy="0.950755" rx="0.985691" ry="0.950755" transform="matrix(-1 0 0 1 16.542 19.2)"/>
</mask>
<ellipse cx="0.985691" cy="0.950755" rx="0.985691" ry="0.950755" transform="matrix(-1 0 0 1 16.542 19.2)" fill="black"/>
<path d="M15.5706 20.1507C15.5706 20.1405 15.5682 20.129 15.5639 20.1192C15.5599 20.1102 15.5557 20.1053 15.5535 20.1032C15.5494 20.0992 15.5483 20.1015 15.5563 20.1015V22.1015C14.494 22.1015 13.5706 21.2618 13.5706 20.1507H15.5706ZM15.5563 20.1015C15.5643 20.1015 15.5632 20.0992 15.5591 20.1032C15.5569 20.1053 15.5527 20.1102 15.5487 20.1192C15.5444 20.129 15.542 20.1405 15.542 20.1507H17.542C17.542 21.2618 16.6186 22.1015 15.5563 22.1015V20.1015ZM15.542 20.1507C15.542 20.161 15.5444 20.1724 15.5487 20.1822C15.5527 20.1913 15.5569 20.1961 15.5591 20.1982C15.5632 20.2022 15.5643 20.2 15.5563 20.2V18.2C16.6186 18.2 17.542 19.0396 17.542 20.1507H15.542ZM15.5563 20.2C15.5483 20.2 15.5494 20.2022 15.5535 20.1982C15.5557 20.1961 15.5599 20.1913 15.5639 20.1822C15.5682 20.1724 15.5706 20.161 15.5706 20.1507H13.5706C13.5706 19.0396 14.494 18.2 15.5563 18.2V20.2Z" fill="#959595" mask="url(#path-5-inside-2_72956_1367)"/>
</svg>
